<svg width="268" height="100" viewBox="0 0 268 100" fill="none" xmlns="http://www.w3.org/2000/svg">
<g clip-path="url(#clip0_110_1738)">
<path d="M206.855 79.0483C201.517 79.0483 196.45 79.0483 190.878 79.0483C191.428 78.3685 191.774 77.9852 192.08 77.5661C192.936 76.3701 193.949 75.2457 194.565 73.9372C195.003 73.007 195.008 71.8161 195.008 70.7428C195.034 60.9192 195.054 51.0905 194.983 41.267C194.968 39.1203 194.683 36.9276 192.151 35.4863C193.323 40.209 193.053 44.6301 191.545 48.8672C186.58 62.8307 177.53 73.0939 163.789 78.895C160.738 80.183 157.484 80.3925 154.285 79.2272C149.636 77.5405 147.792 73.8248 147.227 69.0612C145.357 70.8041 143.682 72.5981 141.782 74.1059C134.041 80.2494 125.536 82.115 116.312 77.9239C107.41 73.881 103.3 66.5619 102.933 56.9479C102.399 42.831 111.214 31.7756 125.026 29.537C130.568 28.6374 135.941 29.5012 140.748 32.6701C145.627 35.885 147.889 40.6025 148.413 46.6387C147.609 46.6387 146.885 46.6387 146.162 46.6387C134.841 46.6387 123.524 46.6796 112.202 46.5927C110.405 46.5774 109.936 47.1907 109.865 48.8519C109.605 55.1283 110.456 61.1288 114.403 66.2296C121.609 75.5421 135.472 76.6103 144.858 68.7239C146.31 67.5023 147.227 66.2143 147.583 64.1903C149.126 55.4094 153.893 48.2845 159.816 41.9059C164.762 36.5801 170.343 32.0874 177.474 30.0072C179.103 29.5318 180.835 29.261 182.531 29.2047C186.422 29.077 188.561 30.2576 191.403 33.8507C194.341 32.5321 197.326 31.1776 200.32 29.8487C202.353 28.9441 202.75 29.2201 202.75 31.4843C202.755 34.7043 202.75 37.9192 203.106 41.2261C203.575 40.4287 204.028 39.6263 204.512 38.8392C208.999 31.561 216.908 27.8963 224.456 29.5881C227.522 30.273 228.214 31.8727 226.61 34.5458C225.067 37.1218 222.582 38.0623 218.945 37.2599C216.287 36.6721 213.654 35.9258 211.031 35.1796C209.946 34.873 209.131 34.9905 208.327 35.8594C204.909 39.5394 202.755 43.7765 202.755 48.8825C202.755 56.4112 202.826 63.9399 202.974 71.4634C203.025 74.0445 203.376 76.6154 206.264 77.8268C206.549 77.9392 206.615 78.5168 206.855 79.0483ZM175.396 33.447C172.691 33.401 170.114 34.6123 167.853 36.4421C161.915 41.2465 158.833 47.8194 156.776 54.9699C155.385 59.7999 154.652 64.6912 156.068 69.6541C157.158 73.4721 159.709 75.4961 163.626 75.7823C167.828 76.089 171.143 74.2388 173.939 71.3357C178.971 66.1019 181.762 59.6516 183.585 52.7363C184.711 48.4685 185.571 44.1547 184.42 39.7387C183.285 35.3738 180.168 33.1454 175.396 33.447ZM140.361 45.3405C139.801 37.3518 132.437 30.8556 124.675 31.0856C116.139 31.3412 110.955 39.2327 110.71 45.3405C120.596 45.3405 130.476 45.3405 140.361 45.3405Z" fill="#FF6DCA"/>
<path d="M74.4281 59.9428C72.8748 63.1577 71.5659 66.4799 69.7477 69.4904C66.7378 74.4635 62.694 78.3275 56.7913 79.7433C49.3301 81.527 42.1032 77.6579 40.2494 70.855C38.5891 64.7575 40.8402 59.3857 46.748 55.767C52.121 52.4755 58.1511 50.8757 64.1709 49.281C67.5374 48.3866 70.8987 47.4717 74.2295 46.5721C74.4128 38.1848 69.6866 33.5235 63.5954 32.7108C56.226 31.7295 50.476 34.607 45.597 39.8306C45.4646 39.9686 45.3831 40.173 45.2252 40.265C44.7974 40.5155 44.3492 40.7199 43.9061 40.9448C44.0437 40.4184 44.0284 39.7641 44.3441 39.3859C47.4559 35.6701 51.1585 32.7261 55.7065 30.9423C60.5957 29.0308 65.6275 28.7446 70.6848 29.9763C76.8625 31.4841 80.8299 36.0841 81.5939 42.5241C81.9096 45.1768 81.9758 47.8652 82.0013 50.5384C82.0573 56.6001 81.9606 62.6619 82.0573 68.7237C82.093 70.809 82.4036 72.9148 82.8365 74.9593C83.1574 76.4721 84.2626 77.7346 85.8465 77.7601C87.4304 77.7806 88.5508 76.5437 88.892 75.0308C89.3402 73.0579 89.7375 71.0186 89.7426 69.0099C89.7731 50.063 89.7273 31.111 89.6764 12.1641C89.6713 9.53189 89.2435 7.06322 86.4882 5.72922C85.5664 5.28456 85.7395 4.55878 86.5697 4.17033C89.6814 2.729 92.8085 1.31833 95.9814 0.0149978C96.3023 -0.117891 97.1782 0.459665 97.4074 0.909443C97.6672 1.42055 97.5042 2.15655 97.5042 2.79033C97.5042 23.9095 97.4889 45.0286 97.5246 66.1477C97.5297 68.6879 97.7487 71.2384 98.0033 73.7684C98.1765 75.4908 98.971 76.8964 100.682 77.663C101.059 77.8317 101.263 78.399 101.798 79.1248C95.9661 79.1248 90.6338 79.1248 85.3015 79.1248C82.8213 79.1248 80.341 79.1504 77.8607 79.1146C75.3143 79.0788 74.4434 78.1997 74.4332 75.6186C74.4128 70.4053 74.4281 65.1766 74.4281 59.9428ZM74.4485 47.5841C68.2606 49.4906 62.3477 51.1568 56.557 53.1706C54.3976 53.9219 52.3502 55.2815 50.5524 56.7432C47.2471 59.4317 46.6309 63.1781 47.4559 67.1546C48.2351 70.8857 50.7154 73.1857 54.3518 73.9933C58.3548 74.8826 62.1032 73.9933 65.2252 71.3099C72.3451 65.2021 74.5707 57.0959 74.4485 47.5841Z" fill="#FF6DCA"/>
<path d="M267.058 79.0945C263.605 79.0945 260.626 79.1814 257.652 79.0638C255.849 78.9922 255.222 77.7094 255.227 76.0176C255.243 70.6611 255.233 65.2996 254.886 59.8153C254.637 60.5105 254.397 61.2056 254.143 61.9007C251.902 68.08 248.637 73.5438 243.055 77.2698C239.18 79.856 234.876 80.7914 230.318 79.672C225.189 78.4147 221.752 75.256 220.769 69.9149C219.765 64.4511 221.538 59.9891 226.075 56.718C230.863 53.268 236.429 51.6631 241.986 50.0684C246.31 48.8264 250.664 47.7122 254.968 46.5469C255.278 37.2447 248.8 31.4844 239.521 32.5936C234.26 33.2222 230.119 35.8544 226.554 39.6009C226.116 40.0609 225.694 40.5362 225.25 40.9962C225.174 41.078 225.026 41.0882 224.543 41.2773C224.639 40.6384 224.553 40.0813 224.787 39.7747C232.314 30.0073 244.823 26.7362 254.53 31.1573C260.086 33.6873 262.276 38.6042 262.505 44.3184C262.816 52.0924 262.663 59.8818 262.78 67.6609C262.811 69.7565 263.02 71.8571 263.29 73.9374C263.503 75.5831 264.272 76.9273 265.912 77.6633C266.305 77.8371 266.518 78.3942 267.058 79.0945ZM255.283 47.8247C254.723 47.9371 254.423 47.9729 254.127 48.0598C249.376 49.4142 244.583 50.6409 239.893 52.1947C237.392 53.0227 234.907 54.1522 232.706 55.5936C226.564 59.6109 226.111 68.4276 231.678 72.5062C235.212 75.0925 240.947 75.0005 245.072 71.8878C252.997 65.9027 255.192 57.3978 255.283 47.8247Z" fill="#FF6DCA"/>
<path d="M34.026 79.0639C28.4798 79.0639 23.2799 79.0639 17.6165 79.0639C18.0698 78.4148 18.2684 77.8219 18.6657 77.6175C20.3056 76.7588 21.0186 75.3175 21.2834 73.6308C21.5228 72.123 21.7011 70.5897 21.7062 69.0717C21.7418 50.5081 21.7418 31.9394 21.7469 13.3759C21.7469 13.0028 21.7112 12.6245 21.696 12.2821C13.3486 9.96676 5.64304 13.0845 1.45155 20.3934C1.25802 20.7359 0.886238 20.9761 0.601034 21.2674C0.392224 21.0119 -0.0101182 20.7461 6.77131e-05 20.4957C0.14267 17.1377 0.336201 13.7848 0.52464 10.3501C17.3823 10.3501 34.0209 10.3501 50.96 10.3501C51.1331 13.7643 51.3165 17.1734 51.454 20.5825C51.4642 20.7972 51.1433 21.1703 50.9345 21.2112C50.7155 21.247 50.3845 21.0119 50.2113 20.8023C49.9719 20.5161 49.8293 20.143 49.6562 19.8057C47.2014 14.9297 43.2136 12.3945 37.8151 12.0879C35.8492 11.9754 33.8732 12.0521 31.9124 11.909C30.3591 11.7914 29.8396 12.2821 29.8549 13.9125C29.9363 22.5912 29.8701 31.2648 29.9007 39.9435C29.9363 50.4672 29.9822 60.9961 30.1146 71.5199C30.1502 74.1112 30.578 76.6617 33.4454 77.8679C33.6746 77.965 33.7459 78.4608 34.026 79.0639Z" fill="#FF6DCA"/>
<path d="M164.843 59.7079C165.826 56.8508 163.891 54.7041 162.037 52.4654C161.538 51.8674 161.421 50.9525 161.125 50.1859C161.818 50.0019 162.511 49.6594 163.198 49.6594C166.34 49.6594 169.208 49.1688 171.087 46.2196C171.556 45.4836 172.248 44.8448 172.961 44.3388C173.318 44.0832 174.015 44.0679 174.448 44.2365C174.79 44.3694 175.019 44.9214 175.177 45.3354C175.284 45.6063 175.207 45.9692 175.156 46.281C174.494 50.237 175.365 53.6512 178.487 56.3754C178.91 56.7434 179.195 57.6021 179.078 58.1337C179.007 58.4608 178.075 58.7163 177.499 58.7981C176.058 59.0025 174.586 59.0077 173.155 59.2632C172.467 59.3859 171.734 59.7845 171.219 60.2701C169.88 61.5274 168.688 62.9534 167.339 64.2057C166.992 64.5277 166.193 64.7065 165.785 64.5328C165.357 64.3488 164.955 63.6792 164.889 63.1732C164.746 62.1714 164.843 61.139 164.843 59.7079Z" fill="#FF6DCA"/>
</g>
<path d="M17.0179 96.6865V88.034H17.7719L21.7273 94.783H21.3317L25.2501 88.034H26.0041V96.6865H25.1265V89.4061H25.3366L21.7273 95.5864H21.2947L17.6606 89.4061H17.8955V96.6865H17.0179ZM32.7046 96.6865V95.2527L32.6675 95.0178V92.6199C32.6675 92.0677 32.5109 91.6434 32.1978 91.3467C31.8929 91.05 31.4355 90.9017 30.8257 90.9017C30.4055 90.9017 30.0058 90.9718 29.6267 91.1119C29.2477 91.2519 28.9263 91.4373 28.6626 91.6681L28.2671 91.013C28.5967 90.7328 28.9922 90.5185 29.4537 90.3702C29.9152 90.2136 30.4013 90.1354 30.9123 90.1354C31.7528 90.1354 32.3997 90.3455 32.8529 90.7658C33.3143 91.1778 33.5451 91.8082 33.5451 92.6569V96.6865H32.7046ZM30.4673 96.7483C29.9811 96.7483 29.5567 96.67 29.1941 96.5135C28.8398 96.3487 28.5678 96.1262 28.3783 95.846C28.1888 95.5576 28.094 95.228 28.094 94.8571C28.094 94.5193 28.1723 94.2144 28.3289 93.9424C28.4937 93.6623 28.7574 93.4398 29.12 93.275C29.4908 93.1019 29.9852 93.0154 30.6032 93.0154H32.8405V93.6705H30.628C30.0017 93.6705 29.5649 93.7818 29.3177 94.0043C29.0787 94.2267 28.9593 94.5028 28.9593 94.8324C28.9593 95.2032 29.1035 95.4999 29.3919 95.7224C29.6803 95.9449 30.0841 96.0561 30.6032 96.0561C31.0977 96.0561 31.522 95.9449 31.8764 95.7224C32.239 95.4917 32.5027 95.162 32.6675 94.7335L32.8652 95.3392C32.7004 95.7677 32.412 96.1097 32 96.3651C31.5962 96.6206 31.0853 96.7483 30.4673 96.7483ZM36.621 95.0055L36.6457 93.8806L40.6876 90.1972H41.763L38.9077 92.9289L38.4133 93.3491L36.621 95.0055ZM35.9288 96.6865V87.5149H36.8064V96.6865H35.9288ZM40.9596 96.6865L38.2526 93.3121L38.8212 92.6322L42.0349 96.6865H40.9596ZM45.8071 96.7483C45.1314 96.7483 44.538 96.6082 44.0271 96.3281C43.5162 96.0396 43.1166 95.6482 42.8282 95.1538C42.5397 94.6511 42.3955 94.0784 42.3955 93.4357C42.3955 92.7929 42.5315 92.2243 42.8034 91.7299C43.0836 91.2355 43.4627 90.8482 43.9406 90.568C44.4268 90.2796 44.9707 90.1354 45.5722 90.1354C46.182 90.1354 46.7218 90.2754 47.1915 90.5556C47.6694 90.8276 48.0444 91.2149 48.3163 91.7175C48.5882 92.212 48.7242 92.7847 48.7242 93.4357C48.7242 93.4769 48.7201 93.5222 48.7118 93.5716C48.7118 93.6128 48.7118 93.6582 48.7118 93.7076H43.063V93.0525H48.2421L47.896 93.3121C47.896 92.8423 47.793 92.4262 47.587 92.0636C47.3892 91.6928 47.1173 91.4044 46.7712 91.1984C46.4251 90.9924 46.0254 90.8894 45.5722 90.8894C45.1272 90.8894 44.7276 90.9924 44.3732 91.1984C44.0189 91.4044 43.7428 91.6928 43.5451 92.0636C43.3473 92.4344 43.2484 92.8588 43.2484 93.3368V93.4727C43.2484 93.9672 43.3555 94.4039 43.5698 94.783C43.7923 95.1538 44.0972 95.4463 44.4845 95.6606C44.88 95.8666 45.3291 95.9696 45.8318 95.9696C46.2273 95.9696 46.594 95.8996 46.9319 95.7595C47.278 95.6194 47.5747 95.4051 47.8219 95.1167L48.3163 95.6853C48.0279 96.0314 47.6653 96.2951 47.2286 96.4764C46.8001 96.6577 46.3262 96.7483 45.8071 96.7483ZM55.612 96.6865V88.8251H52.5713V88.034H59.5674V88.8251H56.5267V96.6865H55.612ZM60.8433 96.6865V87.5149H61.7209V91.9771L61.5478 91.6434C61.7538 91.1737 62.0835 90.807 62.5367 90.5433C62.9899 90.2713 63.5297 90.1354 64.1559 90.1354C64.6833 90.1354 65.1448 90.2384 65.5403 90.4444C65.9441 90.6421 66.2573 90.947 66.4798 91.3591C66.7105 91.7711 66.8259 92.2902 66.8259 92.9165V96.6865H65.9482V93.003C65.9482 92.3191 65.7752 91.8041 65.4291 91.458C65.0912 91.1036 64.6133 90.9264 63.9953 90.9264C63.5338 90.9264 63.13 91.0212 62.7839 91.2107C62.446 91.392 62.1824 91.6598 61.9928 92.0142C61.8115 92.3603 61.7209 92.7805 61.7209 93.275V96.6865H60.8433ZM71.9528 96.7483C71.2771 96.7483 70.6838 96.6082 70.1729 96.3281C69.662 96.0396 69.2623 95.6482 68.9739 95.1538C68.6855 94.6511 68.5413 94.0784 68.5413 93.4357C68.5413 92.7929 68.6773 92.2243 68.9492 91.7299C69.2294 91.2355 69.6084 90.8482 70.0864 90.568C70.5726 90.2796 71.1164 90.1354 71.718 90.1354C72.3278 90.1354 72.8675 90.2754 73.3372 90.5556C73.8152 90.8276 74.1901 91.2149 74.4621 91.7175C74.734 92.212 74.87 92.7847 74.87 93.4357C74.87 93.4769 74.8658 93.5222 74.8576 93.5716C74.8576 93.6128 74.8576 93.6582 74.8576 93.7076H69.2088V93.0525H74.3879L74.0418 93.3121C74.0418 92.8423 73.9388 92.4262 73.7328 92.0636C73.535 91.6928 73.2631 91.4044 72.917 91.1984C72.5709 90.9924 72.1712 90.8894 71.718 90.8894C71.273 90.8894 70.8733 90.9924 70.519 91.1984C70.1647 91.4044 69.8886 91.6928 69.6908 92.0636C69.4931 92.4344 69.3942 92.8588 69.3942 93.3368V93.4727C69.3942 93.9672 69.5013 94.4039 69.7156 94.783C69.938 95.1538 70.2429 95.4463 70.6302 95.6606C71.0258 95.8666 71.4749 95.9696 71.9776 95.9696C72.3731 95.9696 72.7398 95.8996 73.0777 95.7595C73.4238 95.6194 73.7204 95.4051 73.9676 95.1167L74.4621 95.6853C74.1736 96.0314 73.8111 96.2951 73.3743 96.4764C72.9458 96.6577 72.472 96.7483 71.9528 96.7483ZM76.6563 96.6865V90.1972H77.4968V91.9524L77.3608 91.6434C77.5586 91.1737 77.8759 90.807 78.3126 90.5433C78.7576 90.2713 79.2809 90.1354 79.8824 90.1354C80.5169 90.1354 81.0567 90.296 81.5017 90.6174C81.9466 90.9306 82.2351 91.4044 82.3669 92.0389L82.0208 91.9029C82.2103 91.3755 82.5441 90.9512 83.022 90.6298C83.5082 90.3002 84.0892 90.1354 84.7649 90.1354C85.2923 90.1354 85.7496 90.2384 86.1369 90.4444C86.5325 90.6421 86.8374 90.947 87.0516 91.3591C87.2741 91.7711 87.3854 92.2902 87.3854 92.9165V96.6865H86.5077V93.003C86.5077 92.3191 86.3429 91.8041 86.0133 91.458C85.6919 91.1036 85.2346 90.9264 84.6413 90.9264C84.1963 90.9264 83.809 91.0212 83.4794 91.2107C83.158 91.392 82.9067 91.6598 82.7254 92.0142C82.5523 92.3603 82.4658 92.7805 82.4658 93.275V96.6865H81.5882V93.003C81.5882 92.3191 81.4234 91.8041 81.0938 91.458C80.7641 91.1036 80.3027 90.9264 79.7094 90.9264C79.2726 90.9264 78.8894 91.0212 78.5598 91.2107C78.2302 91.392 77.9747 91.6598 77.7935 92.0142C77.6204 92.3603 77.5339 92.7805 77.5339 93.275V96.6865H76.6563ZM95.0523 96.7483C94.4425 96.7483 93.9728 96.5835 93.6431 96.2539C93.3135 95.9243 93.1487 95.4587 93.1487 94.8571V88.7633H94.0263V94.8077C94.0263 95.1868 94.1211 95.4793 94.3106 95.6853C94.5084 95.8913 94.7886 95.9943 95.1511 95.9943C95.5385 95.9943 95.8598 95.8831 96.1153 95.6606L96.4243 96.291C96.2513 96.4476 96.0411 96.5629 95.7939 96.6371C95.5549 96.7112 95.3077 96.7483 95.0523 96.7483ZM91.9868 90.9264V90.1972H96.004V90.9264H91.9868ZM98.0219 96.6865V87.5149H98.8995V91.9771L98.7265 91.6434C98.9325 91.1737 99.2621 90.807 99.7153 90.5433C100.169 90.2713 100.708 90.1354 101.335 90.1354C101.862 90.1354 102.323 90.2384 102.719 90.4444C103.123 90.6421 103.436 90.947 103.658 91.3591C103.889 91.7711 104.004 92.2902 104.004 92.9165V96.6865H103.127V93.003C103.127 92.3191 102.954 91.8041 102.608 91.458C102.27 91.1036 101.792 90.9264 101.174 90.9264C100.712 90.9264 100.309 91.0212 99.9625 91.2107C99.6247 91.392 99.361 91.6598 99.1715 92.0142C98.9902 92.3603 98.8995 92.7805 98.8995 93.275V96.6865H98.0219ZM109.131 96.7483C108.456 96.7483 107.862 96.6082 107.352 96.3281C106.841 96.0396 106.441 95.6482 106.153 95.1538C105.864 94.6511 105.72 94.0784 105.72 93.4357C105.72 92.7929 105.856 92.2243 106.128 91.7299C106.408 91.2355 106.787 90.8482 107.265 90.568C107.751 90.2796 108.295 90.1354 108.897 90.1354C109.506 90.1354 110.046 90.2754 110.516 90.5556C110.994 90.8276 111.369 91.2149 111.641 91.7175C111.913 92.212 112.049 92.7847 112.049 93.4357C112.049 93.4769 112.044 93.5222 112.036 93.5716C112.036 93.6128 112.036 93.6582 112.036 93.7076H106.387V93.0525H111.567L111.22 93.3121C111.22 92.8423 111.117 92.4262 110.911 92.0636C110.714 91.6928 110.442 91.4044 110.096 91.1984C109.75 90.9924 109.35 90.8894 108.897 90.8894C108.452 90.8894 108.052 90.9924 107.698 91.1984C107.343 91.4044 107.067 91.6928 106.869 92.0636C106.672 92.4344 106.573 92.8588 106.573 93.3368V93.4727C106.573 93.9672 106.68 94.4039 106.894 94.783C107.117 95.1538 107.422 95.4463 107.809 95.6606C108.204 95.8666 108.654 95.9696 109.156 95.9696C109.552 95.9696 109.918 95.8996 110.256 95.7595C110.602 95.6194 110.899 95.4051 111.146 95.1167L111.641 95.6853C111.352 96.0314 110.99 96.2951 110.553 96.4764C110.124 96.6577 109.651 96.7483 109.131 96.7483ZM122.496 96.6865V88.034H124.944V96.6865H122.496ZM116.711 96.6865V88.034H119.159V96.6865H116.711ZM118.986 93.3121V91.2849H122.669V93.3121H118.986ZM130.069 96.7978C129.278 96.7978 128.586 96.6494 127.993 96.3528C127.408 96.0479 126.95 95.6359 126.621 95.1167C126.299 94.5893 126.139 93.9919 126.139 93.3244C126.139 92.6569 126.295 92.0636 126.608 91.5445C126.93 91.0171 127.37 90.6092 127.931 90.3208C128.491 90.0241 129.122 89.8758 129.822 89.8758C130.481 89.8758 131.083 90.0118 131.627 90.2837C132.171 90.5474 132.603 90.9388 132.925 91.458C133.246 91.9771 133.407 92.6075 133.407 93.3491C133.407 93.4315 133.402 93.5263 133.394 93.6334C133.386 93.7406 133.378 93.8394 133.37 93.9301H128.067V92.694H132.121L131.231 93.0401C131.239 92.7352 131.182 92.4715 131.058 92.249C130.943 92.0265 130.778 91.8535 130.564 91.7299C130.358 91.6063 130.115 91.5445 129.834 91.5445C129.554 91.5445 129.307 91.6063 129.093 91.7299C128.887 91.8535 128.726 92.0307 128.611 92.2614C128.495 92.4839 128.438 92.7476 128.438 93.0525V93.4109C128.438 93.7406 128.504 94.0249 128.635 94.2638C128.775 94.5028 128.973 94.6882 129.229 94.8201C129.484 94.9437 129.789 95.0055 130.143 95.0055C130.473 95.0055 130.753 94.9601 130.984 94.8695C131.223 94.7706 131.458 94.6223 131.688 94.4245L132.925 95.71C132.603 96.0644 132.208 96.3363 131.738 96.5258C131.268 96.7071 130.712 96.7978 130.069 96.7978ZM134.489 96.6865V89.987H136.727V91.94L136.393 91.3838C136.591 90.8811 136.912 90.5062 137.357 90.259C137.802 90.0035 138.342 89.8758 138.976 89.8758V91.9895C138.869 91.973 138.774 91.9647 138.692 91.9647C138.618 91.9565 138.536 91.9524 138.445 91.9524C137.967 91.9524 137.58 92.0842 137.283 92.3479C136.986 92.6034 136.838 93.0236 136.838 93.6087V96.6865H134.489ZM143.247 96.7978C142.514 96.7978 141.863 96.6494 141.294 96.3528C140.726 96.0561 140.277 95.6482 139.947 95.1291C139.626 94.6017 139.465 94.0001 139.465 93.3244C139.465 92.6487 139.626 92.0513 139.947 91.5321C140.277 91.013 140.726 90.6092 141.294 90.3208C141.863 90.0241 142.514 89.8758 143.247 89.8758C143.981 89.8758 144.632 90.0241 145.2 90.3208C145.777 90.6092 146.226 91.013 146.548 91.5321C146.869 92.0513 147.03 92.6487 147.03 93.3244C147.03 94.0001 146.869 94.6017 146.548 95.1291C146.226 95.6482 145.777 96.0561 145.2 96.3528C144.632 96.6494 143.981 96.7978 143.247 96.7978ZM143.247 94.9313C143.519 94.9313 143.758 94.8695 143.964 94.7459C144.178 94.6223 144.347 94.441 144.471 94.202C144.595 93.9548 144.656 93.6623 144.656 93.3244C144.656 92.9866 144.595 92.7023 144.471 92.4715C144.347 92.2326 144.178 92.0513 143.964 91.9277C143.758 91.8041 143.519 91.7422 143.247 91.7422C142.984 91.7422 142.745 91.8041 142.53 91.9277C142.324 92.0513 142.155 92.2326 142.024 92.4715C141.9 92.7023 141.838 92.9866 141.838 93.3244C141.838 93.6623 141.9 93.9548 142.024 94.202C142.155 94.441 142.324 94.6223 142.53 94.7459C142.745 94.8695 142.984 94.9313 143.247 94.9313ZM154.467 96.7483C153.841 96.7483 153.277 96.6082 152.774 96.3281C152.28 96.0396 151.888 95.6482 151.6 95.1538C151.311 94.6511 151.167 94.0784 151.167 93.4357C151.167 92.7847 151.311 92.212 151.6 91.7175C151.888 91.2231 152.28 90.8358 152.774 90.5556C153.269 90.2754 153.833 90.1354 154.467 90.1354C155.11 90.1354 155.679 90.2754 156.173 90.5556C156.676 90.8358 157.067 91.2231 157.348 91.7175C157.636 92.212 157.78 92.7847 157.78 93.4357C157.78 94.0784 157.636 94.6511 157.348 95.1538C157.067 95.6482 156.676 96.0396 156.173 96.3281C155.671 96.6082 155.102 96.7483 154.467 96.7483ZM154.467 95.9696C154.937 95.9696 155.353 95.8666 155.716 95.6606C156.079 95.4463 156.363 95.1497 156.569 94.7706C156.783 94.3833 156.89 93.9383 156.89 93.4357C156.89 92.9248 156.783 92.4798 156.569 92.1007C156.363 91.7216 156.079 91.4291 155.716 91.2231C155.353 91.0088 154.941 90.9017 154.48 90.9017C154.018 90.9017 153.606 91.0088 153.244 91.2231C152.881 91.4291 152.593 91.7216 152.379 92.1007C152.164 92.4798 152.057 92.9248 152.057 93.4357C152.057 93.9383 152.164 94.3833 152.379 94.7706C152.593 95.1497 152.881 95.4463 153.244 95.6606C153.606 95.8666 154.014 95.9696 154.467 95.9696ZM159.72 96.6865V89.3814C159.72 88.8045 159.889 88.3389 160.227 87.9846C160.565 87.6303 161.051 87.4531 161.686 87.4531C161.933 87.4531 162.172 87.486 162.402 87.552C162.633 87.6179 162.827 87.7209 162.983 87.861L162.687 88.5161C162.563 88.409 162.419 88.3307 162.254 88.2813C162.089 88.2236 161.912 88.1947 161.723 88.1947C161.352 88.1947 161.068 88.2977 160.87 88.5037C160.672 88.7098 160.573 89.0147 160.573 89.4184V90.4073L160.598 90.8152V96.6865H159.72ZM158.558 90.9264V90.1972H162.576V90.9264H158.558ZM168.862 96.6865V88.8251H165.821V88.034H172.817V88.8251H169.777V96.6865H168.862ZM174.093 96.6865V87.5149H174.971V91.9771L174.798 91.6434C175.004 91.1737 175.333 90.807 175.787 90.5433C176.24 90.2713 176.78 90.1354 177.406 90.1354C177.933 90.1354 178.395 90.2384 178.79 90.4444C179.194 90.6421 179.507 90.947 179.73 91.3591C179.96 91.7711 180.076 92.2902 180.076 92.9165V96.6865H179.198V93.003C179.198 92.3191 179.025 91.8041 178.679 91.458C178.341 91.1036 177.863 90.9264 177.245 90.9264C176.784 90.9264 176.38 91.0212 176.034 91.2107C175.696 91.392 175.432 91.6598 175.243 92.0142C175.062 92.3603 174.971 92.7805 174.971 93.275V96.6865H174.093ZM185.203 96.7483C184.527 96.7483 183.934 96.6082 183.423 96.3281C182.912 96.0396 182.512 95.6482 182.224 95.1538C181.936 94.6511 181.791 94.0784 181.791 93.4357C181.791 92.7929 181.927 92.2243 182.199 91.7299C182.479 91.2355 182.858 90.8482 183.336 90.568C183.823 90.2796 184.366 90.1354 184.968 90.1354C185.578 90.1354 186.118 90.2754 186.587 90.5556C187.065 90.8276 187.44 91.2149 187.712 91.7175C187.984 92.212 188.12 92.7847 188.12 93.4357C188.12 93.4769 188.116 93.5222 188.108 93.5716C188.108 93.6128 188.108 93.6582 188.108 93.7076H182.459V93.0525H187.638L187.292 93.3121C187.292 92.8423 187.189 92.4262 186.983 92.0636C186.785 91.6928 186.513 91.4044 186.167 91.1984C185.821 90.9924 185.421 90.8894 184.968 90.8894C184.523 90.8894 184.123 90.9924 183.769 91.1984C183.415 91.4044 183.139 91.6928 182.941 92.0636C182.743 92.4344 182.644 92.8588 182.644 93.3368V93.4727C182.644 93.9672 182.751 94.4039 182.966 94.783C183.188 95.1538 183.493 95.4463 183.88 95.6606C184.276 95.8666 184.725 95.9696 185.228 95.9696C185.623 95.9696 185.99 95.8996 186.328 95.7595C186.674 95.6194 186.97 95.4051 187.218 95.1167L187.712 95.6853C187.424 96.0314 187.061 96.2951 186.624 96.4764C186.196 96.6577 185.722 96.7483 185.203 96.7483ZM189.906 96.6865V90.1972H190.784V96.6865H189.906ZM190.351 88.7633C190.17 88.7633 190.018 88.7015 189.894 88.5779C189.77 88.4543 189.709 88.306 189.709 88.1329C189.709 87.9599 189.77 87.8157 189.894 87.7003C190.018 87.5767 190.17 87.5149 190.351 87.5149C190.533 87.5149 190.685 87.5726 190.809 87.6879C190.932 87.8033 190.994 87.9475 190.994 88.1206C190.994 88.3019 190.932 88.4543 190.809 88.5779C190.693 88.7015 190.541 88.7633 190.351 88.7633ZM193.226 96.6865V90.1972H194.066V91.9647L193.98 91.6557C194.161 91.1613 194.466 90.7864 194.894 90.5309C195.323 90.2672 195.855 90.1354 196.489 90.1354V90.9882C196.456 90.9882 196.423 90.9882 196.39 90.9882C196.357 90.98 196.324 90.9759 196.291 90.9759C195.607 90.9759 195.072 91.186 194.684 91.6063C194.297 92.0183 194.103 92.6075 194.103 93.3739V96.6865H193.226ZM205.39 96.7607C204.739 96.7607 204.133 96.6536 203.573 96.4393C203.021 96.2168 202.539 95.9078 202.127 95.5123C201.723 95.1085 201.406 94.6429 201.175 94.1155C200.952 93.5799 200.841 92.9948 200.841 92.3603C200.841 91.7258 200.952 91.1448 201.175 90.6174C201.406 90.0818 201.723 89.6162 202.127 89.2207C202.539 88.8169 203.021 88.5079 203.573 88.2936C204.125 88.0711 204.731 87.9599 205.39 87.9599C206.041 87.9599 206.642 88.0711 207.194 88.2936C207.747 88.5079 208.224 88.8128 208.628 89.2083C209.04 89.6038 209.358 90.0694 209.58 90.6051C209.811 91.1407 209.926 91.7258 209.926 92.3603C209.926 92.9948 209.811 93.5799 209.58 94.1155C209.358 94.6511 209.04 95.1167 208.628 95.5123C208.224 95.9078 207.747 96.2168 207.194 96.4393C206.642 96.6536 206.041 96.7607 205.39 96.7607ZM205.39 95.9449C205.909 95.9449 206.387 95.8584 206.824 95.6853C207.269 95.504 207.652 95.2527 207.973 94.9313C208.303 94.6017 208.558 94.2226 208.74 93.7941C208.921 93.3574 209.011 92.8794 209.011 92.3603C209.011 91.8411 208.921 91.3673 208.74 90.9388C208.558 90.5021 208.303 90.123 207.973 89.8016C207.652 89.472 207.269 89.2207 206.824 89.0476C206.387 88.8663 205.909 88.7757 205.39 88.7757C204.871 88.7757 204.389 88.8663 203.944 89.0476C203.499 89.2207 203.111 89.472 202.782 89.8016C202.46 90.123 202.205 90.5021 202.015 90.9388C201.834 91.3673 201.743 91.8411 201.743 92.3603C201.743 92.8712 201.834 93.345 202.015 93.7818C202.205 94.2185 202.46 94.6017 202.782 94.9313C203.111 95.2527 203.499 95.504 203.944 95.6853C204.389 95.8584 204.871 95.9449 205.39 95.9449ZM213.114 96.6865L210.666 90.1972H211.507L213.732 96.2168H213.348L215.635 90.1972H216.389L218.651 96.2168H218.268L220.53 90.1972H221.333L218.874 96.6865H218.045L215.87 91.0253H216.13L213.942 96.6865H213.114ZM222.655 96.6865V90.1972H223.495V91.9771L223.359 91.6434C223.565 91.1737 223.895 90.807 224.348 90.5433C224.802 90.2713 225.341 90.1354 225.968 90.1354C226.495 90.1354 226.956 90.2384 227.352 90.4444C227.756 90.6421 228.069 90.947 228.291 91.3591C228.522 91.7711 228.637 92.2902 228.637 92.9165V96.6865H227.76V93.003C227.76 92.3191 227.587 91.8041 227.241 91.458C226.903 91.1036 226.425 90.9264 225.807 90.9264C225.345 90.9264 224.942 91.0212 224.595 91.2107C224.258 91.392 223.994 91.6598 223.804 92.0142C223.623 92.3603 223.532 92.7805 223.532 93.275V96.6865H222.655ZM236.814 96.7607C236.171 96.7607 235.553 96.6577 234.96 96.4517C234.375 96.2374 233.922 95.9655 233.6 95.6359L233.959 94.9313C234.264 95.228 234.672 95.4793 235.182 95.6853C235.702 95.8831 236.245 95.982 236.814 95.982C237.358 95.982 237.799 95.916 238.137 95.7842C238.483 95.6441 238.734 95.4587 238.891 95.228C239.055 94.9972 239.138 94.7418 239.138 94.4616C239.138 94.1237 239.039 93.8518 238.841 93.6458C238.652 93.4398 238.4 93.2791 238.087 93.1637C237.774 93.0401 237.428 92.933 237.049 92.8423C236.67 92.7517 236.291 92.6569 235.912 92.5581C235.533 92.4509 235.182 92.3108 234.861 92.1378C234.548 91.9647 234.292 91.7381 234.095 91.458C233.905 91.1695 233.81 90.7946 233.81 90.3331C233.81 89.9046 233.922 89.5132 234.144 89.1589C234.375 88.7963 234.725 88.5079 235.195 88.2936C235.664 88.0711 236.266 87.9599 236.999 87.9599C237.486 87.9599 237.968 88.0299 238.446 88.17C238.924 88.3019 239.336 88.4873 239.682 88.7262L239.373 89.4555C239.002 89.2083 238.606 89.027 238.186 88.9116C237.774 88.7963 237.374 88.7386 236.987 88.7386C236.468 88.7386 236.039 88.8086 235.702 88.9487C235.364 89.0888 235.112 89.2783 234.948 89.5173C234.791 89.7481 234.713 90.0117 234.713 90.3084C234.713 90.6463 234.807 90.9182 234.997 91.1242C235.195 91.3302 235.45 91.4909 235.763 91.6063C236.085 91.7216 236.435 91.8247 236.814 91.9153C237.193 92.0059 237.568 92.1048 237.939 92.212C238.318 92.3191 238.664 92.4592 238.977 92.6322C239.299 92.797 239.554 93.0195 239.744 93.2997C239.941 93.5799 240.04 93.9466 240.04 94.3998C240.04 94.8201 239.925 95.2115 239.694 95.5741C239.463 95.9284 239.109 96.2168 238.631 96.4393C238.161 96.6536 237.556 96.7607 236.814 96.7607ZM243.9 96.7483C243.29 96.7483 242.82 96.5835 242.49 96.2539C242.161 95.9243 241.996 95.4587 241.996 94.8571V88.7633H242.874V94.8077C242.874 95.1868 242.968 95.4793 243.158 95.6853C243.356 95.8913 243.636 95.9943 243.998 95.9943C244.386 95.9943 244.707 95.8831 244.963 95.6606L245.272 96.291C245.099 96.4476 244.888 96.5629 244.641 96.6371C244.402 96.7112 244.155 96.7483 243.9 96.7483ZM240.834 90.9264V90.1972H244.851V90.9264H240.834ZM249.285 96.7483C248.659 96.7483 248.094 96.6082 247.592 96.3281C247.097 96.0396 246.706 95.6482 246.417 95.1538C246.129 94.6511 245.985 94.0784 245.985 93.4357C245.985 92.7847 246.129 92.212 246.417 91.7175C246.706 91.2231 247.097 90.8358 247.592 90.5556C248.086 90.2754 248.651 90.1354 249.285 90.1354C249.928 90.1354 250.496 90.2754 250.991 90.5556C251.494 90.8358 251.885 91.2231 252.165 91.7175C252.454 92.212 252.598 92.7847 252.598 93.4357C252.598 94.0784 252.454 94.6511 252.165 95.1538C251.885 95.6482 251.494 96.0396 250.991 96.3281C250.488 96.6082 249.92 96.7483 249.285 96.7483ZM249.285 95.9696C249.755 95.9696 250.171 95.8666 250.534 95.6606C250.896 95.4463 251.18 95.1497 251.386 94.7706C251.601 94.3833 251.708 93.9383 251.708 93.4357C251.708 92.9248 251.601 92.4798 251.386 92.1007C251.18 91.7216 250.896 91.4291 250.534 91.2231C250.171 91.0088 249.759 90.9017 249.297 90.9017C248.836 90.9017 248.424 91.0088 248.061 91.2231C247.699 91.4291 247.41 91.7216 247.196 92.1007C246.982 92.4798 246.875 92.9248 246.875 93.4357C246.875 93.9383 246.982 94.3833 247.196 94.7706C247.41 95.1497 247.699 95.4463 248.061 95.6606C248.424 95.8666 248.832 95.9696 249.285 95.9696ZM254.389 96.6865V90.1972H255.23V91.9647L255.143 91.6557C255.325 91.1613 255.63 90.7864 256.058 90.5309C256.487 90.2672 257.018 90.1354 257.653 90.1354V90.9882C257.62 90.9882 257.587 90.9882 257.554 90.9882C257.521 90.98 257.488 90.9759 257.455 90.9759C256.771 90.9759 256.235 91.186 255.848 91.6063C255.461 92.0183 255.267 92.6075 255.267 93.3739V96.6865H254.389ZM259.328 99.1463C259.023 99.1463 258.73 99.0969 258.45 98.998C258.178 98.8991 257.943 98.7508 257.746 98.553L258.153 97.8979C258.318 98.0544 258.495 98.1739 258.685 98.2563C258.883 98.347 259.101 98.3923 259.34 98.3923C259.628 98.3923 259.876 98.3099 260.082 98.1451C260.296 97.9885 260.498 97.7083 260.687 97.3046L261.108 96.3528L261.207 96.2168L263.876 90.1972H264.742L261.491 97.4652C261.31 97.8855 261.108 98.2192 260.885 98.4665C260.671 98.7137 260.436 98.8867 260.181 98.9856C259.925 99.0927 259.641 99.1463 259.328 99.1463ZM261.058 96.8719L258.067 90.1972H258.982L261.627 96.155L261.058 96.8719ZM266.015 94.0908L265.842 88.034H266.88L266.695 94.0908H266.015ZM266.361 96.7483C266.18 96.7483 266.023 96.6865 265.891 96.5629C265.768 96.4311 265.706 96.2786 265.706 96.1056C265.706 95.9243 265.768 95.776 265.891 95.6606C266.023 95.537 266.18 95.4752 266.361 95.4752C266.55 95.4752 266.703 95.537 266.818 95.6606C266.942 95.776 267.004 95.9243 267.004 96.1056C267.004 96.2786 266.942 96.4311 266.818 96.5629C266.703 96.6865 266.55 96.7483 266.361 96.7483Z" fill="#FF6DCA"/>
<defs>
<clipPath id="clip0_110_1738">
<rect width="267.965" height="80.0982" fill="white"/>
</clipPath>
</defs>
</svg>
