<svg width="112" height="34" viewBox="0 0 112 34" fill="none" xmlns="http://www.w3.org/2000/svg">
<g clip-path="url(#clip0_110_1353)">
<path d="M86.4581 33.5544C84.2272 33.5544 82.1092 33.5544 79.7805 33.5544C80.0104 33.2659 80.1551 33.1032 80.2828 32.9253C80.6404 32.4176 81.064 31.9403 81.3216 31.3849C81.5047 30.99 81.5068 30.4845 81.5068 30.0289C81.5174 25.859 81.526 21.6869 81.4962 17.517C81.4898 16.6058 81.3706 15.6751 80.3126 15.0633C80.8022 17.0679 80.6894 18.9446 80.0593 20.7432C77.9839 26.6704 74.2012 31.0269 68.4581 33.4893C67.183 34.0361 65.8228 34.125 64.486 33.6304C62.5425 32.9144 61.7719 31.3371 61.5356 29.3151C60.7544 30.0549 60.0541 30.8164 59.2601 31.4565C56.0245 34.0643 52.4696 34.8562 48.6146 33.0771C44.8937 31.361 43.1758 28.2542 43.0226 24.1732C42.7991 18.1809 46.4838 13.4882 52.2567 12.5379C54.5727 12.156 56.8185 12.5227 58.8279 13.8678C60.8672 15.2325 61.8123 17.235 62.0316 19.7972C61.6953 19.7972 61.393 19.7972 61.0907 19.7972C56.3587 19.7972 51.6288 19.8146 46.8967 19.7777C46.1453 19.7712 45.9495 20.0316 45.9197 20.7367C45.8111 23.4009 46.1666 25.9479 47.8163 28.1132C50.8284 32.0661 56.6226 32.5196 60.5458 29.1719C61.1525 28.6534 61.5356 28.1067 61.6846 27.2475C62.3296 23.5202 64.322 20.4958 66.7977 17.7882C68.8646 15.5275 71.1977 13.6205 74.1778 12.7375C74.859 12.5357 75.5827 12.4207 76.2916 12.3969C77.9179 12.3426 78.8119 12.8438 79.9997 14.369C81.228 13.8093 82.4753 13.2343 83.727 12.6702C84.5763 12.2862 84.7424 12.4034 84.7424 13.3645C84.7445 14.7313 84.7424 16.096 84.8914 17.4997C85.0872 17.1612 85.2767 16.8206 85.4789 16.4865C87.3543 13.397 90.6601 11.8415 93.8148 12.5596C95.0962 12.8503 95.3857 13.5294 94.7152 14.6641C94.0702 15.7575 93.0314 16.1567 91.5116 15.8161C90.4004 15.5666 89.2999 15.2498 88.2036 14.9331C87.7502 14.8029 87.4096 14.8528 87.0733 15.2216C85.6449 16.7837 84.7445 18.5823 84.7445 20.7497C84.7445 23.9454 84.7743 27.1412 84.836 30.3348C84.8573 31.4304 85.0042 32.5217 86.2112 33.0359C86.3304 33.0836 86.358 33.3288 86.4581 33.5544ZM73.3093 14.1976C72.179 14.1781 71.1019 14.6923 70.1567 15.469C67.6747 17.5084 66.3869 20.2984 65.5269 23.3336C64.9457 25.3839 64.6392 27.4601 65.231 29.5668C65.6865 31.1874 66.753 32.0466 68.3899 32.1681C70.1461 32.2983 71.5319 31.5129 72.7005 30.2806C74.8036 28.0589 75.9701 25.3209 76.7322 22.3855C77.2026 20.5739 77.5624 18.7428 77.0813 16.8683C76.6066 15.0155 75.3039 14.0696 73.3093 14.1976ZM58.6662 19.2462C58.432 15.8551 55.354 13.0976 52.1099 13.1953C48.5422 13.3037 46.3752 16.6535 46.2731 19.2462C50.4048 19.2462 54.5344 19.2462 58.6662 19.2462Z" fill="#FF6DCA"/>
<path d="M31.1084 25.4446C30.4592 26.8093 29.9121 28.2195 29.1522 29.4973C27.8941 31.6083 26.204 33.2485 23.7368 33.8495C20.6183 34.6067 17.5977 32.9643 16.8229 30.0766C16.129 27.4883 17.0698 25.2081 19.5391 23.6721C21.7848 22.2749 24.3052 21.5958 26.8213 20.9189C28.2283 20.5392 29.6332 20.1509 31.0254 19.769C31.102 16.2088 29.1266 14.2301 26.5807 13.8852C23.5005 13.4686 21.0973 14.6901 19.058 16.9074C19.0027 16.966 18.9686 17.0527 18.9026 17.0918C18.7238 17.1981 18.5365 17.2849 18.3513 17.3803C18.4088 17.1569 18.4024 16.8792 18.5344 16.7186C19.835 15.1414 21.3825 13.8917 23.2834 13.1345C25.3269 12.3231 27.4301 12.2016 29.5438 12.7245C32.1259 13.3645 33.7842 15.3171 34.1035 18.0507C34.2354 19.1767 34.2631 20.3179 34.2737 21.4526C34.2972 24.0257 34.2567 26.5988 34.2972 29.1719C34.3121 30.0571 34.4419 30.9509 34.6228 31.8188C34.757 32.461 35.2189 32.9968 35.8809 33.0077C36.5429 33.0164 37.0112 32.4913 37.1538 31.8491C37.3412 31.0117 37.5072 30.146 37.5093 29.2934C37.5221 21.2508 37.5029 13.2061 37.4817 5.16355C37.4795 4.04622 37.3007 2.99832 36.1491 2.43207C35.7638 2.24332 35.8362 1.93524 36.1832 1.77035C37.4838 1.15854 38.7908 0.559738 40.117 0.00649978C40.2511 -0.0499088 40.6172 0.195252 40.713 0.386173C40.8215 0.603129 40.7534 0.915546 40.7534 1.18457C40.7534 10.1492 40.747 19.1138 40.7619 28.0784C40.7641 29.1567 40.8556 30.2393 40.962 31.3133C41.0344 32.0444 41.3665 32.641 42.0817 32.9665C42.2392 33.0381 42.3244 33.2789 42.5479 33.587C40.1106 33.587 37.8818 33.587 35.6531 33.587C34.6165 33.587 33.5798 33.5978 32.5431 33.5826C31.4788 33.5674 31.1148 33.1943 31.1105 32.0986C31.102 29.8857 31.1084 27.6662 31.1084 25.4446ZM31.1169 20.1986C28.5306 21.0078 26.0592 21.7151 23.6389 22.5699C22.7364 22.8889 21.8806 23.466 21.1292 24.0865C19.7477 25.2276 19.4901 26.8179 19.835 28.5058C20.1607 30.0896 21.1973 31.0659 22.7172 31.4087C24.3903 31.7862 25.957 31.4087 27.2619 30.2697C30.2378 27.6771 31.168 24.2362 31.1169 20.1986Z" fill="#FF6DCA"/>
<path d="M111.621 33.574C110.178 33.574 108.933 33.6108 107.689 33.5609C106.936 33.5306 106.674 32.986 106.676 32.2679C106.683 29.9942 106.678 27.7183 106.534 25.3904C106.429 25.6854 106.329 25.9805 106.223 26.2755C105.286 28.8985 103.922 31.2178 101.589 32.7994C99.9688 33.8972 98.17 34.2942 96.2649 33.8191C94.1213 33.2854 92.6845 31.9446 92.2736 29.6774C91.8543 27.3582 92.595 25.4641 94.4917 24.0756C96.4926 22.6112 98.8193 21.9299 101.142 21.253C102.949 20.7258 104.769 20.2528 106.568 19.7582C106.697 15.8096 103.99 13.3645 100.111 13.8353C97.9125 14.1021 96.1819 15.2195 94.6918 16.8098C94.5087 17.005 94.332 17.2068 94.1469 17.402C94.1149 17.4368 94.0532 17.4411 93.851 17.5214C93.8914 17.2502 93.8552 17.0137 93.9531 16.8835C97.0993 12.7375 102.327 11.349 106.385 13.2256C108.707 14.2996 109.622 16.3867 109.718 18.8123C109.848 22.1122 109.784 25.4186 109.833 28.7206C109.846 29.6102 109.933 30.5019 110.046 31.3849C110.135 32.0835 110.457 32.6541 111.142 32.9665C111.306 33.0402 111.395 33.2767 111.621 33.574ZM106.7 20.3006C106.465 20.3483 106.34 20.3635 106.216 20.4004C104.23 20.9753 102.227 21.496 100.267 22.1556C99.2216 22.507 98.1828 22.9865 97.2632 23.5983C94.6961 25.3036 94.5066 29.0461 96.8332 30.7774C98.3105 31.8752 100.707 31.8361 102.432 30.5149C105.744 27.9743 106.661 24.3642 106.7 20.3006Z" fill="#FF6DCA"/>
<path d="M14.2216 33.5609C11.9035 33.5609 9.73011 33.5609 7.36303 33.5609C7.55248 33.2854 7.6355 33.0337 7.80153 32.9469C8.48697 32.5825 8.78498 31.9706 8.89567 31.2547C8.99572 30.6147 9.07022 29.9638 9.07235 29.3194C9.08725 21.4396 9.08725 13.5576 9.08938 5.67774C9.08938 5.51936 9.07448 5.35881 9.06809 5.21345C5.5792 4.23064 2.35852 5.55407 0.606628 8.65654C0.525739 8.8019 0.370346 8.90387 0.25114 9.02754C0.163865 8.91906 -0.00430009 8.80624 -4.27474e-05 8.69993C0.05956 7.27453 0.140449 5.8513 0.21921 4.39336C7.26511 4.39336 14.2195 4.39336 21.2994 4.39336C21.3718 5.84262 21.4484 7.28972 21.5059 8.73682C21.5102 8.82794 21.3761 8.98632 21.2888 9.00367C21.1973 9.01886 21.0589 8.91906 20.9865 8.83011C20.8865 8.70861 20.8269 8.55024 20.7545 8.40704C19.7285 6.33728 18.0617 5.26118 15.8053 5.13101C14.9837 5.08328 14.1577 5.11582 13.3382 5.05507C12.689 5.00517 12.4718 5.21345 12.4782 5.90554C12.5123 9.58945 12.4846 13.2712 12.4974 16.9551C12.5123 21.4222 12.5314 25.8915 12.5868 30.3587C12.6017 31.4586 12.7805 32.5412 13.9789 33.0533C14.0747 33.0945 14.1045 33.3049 14.2216 33.5609Z" fill="#FF6DCA"/>
<path d="M68.8987 25.3448C69.3095 24.132 68.5006 23.2208 67.7258 22.2705C67.5172 22.0167 67.4682 21.6284 67.3447 21.3029C67.6342 21.2248 67.9237 21.0795 68.2111 21.0795C69.5245 21.0795 70.7229 20.8712 71.5084 19.6193C71.7042 19.3069 71.9937 19.0357 72.2918 18.8209C72.4408 18.7125 72.7324 18.706 72.9133 18.7776C73.056 18.834 73.1517 19.0683 73.2177 19.244C73.2624 19.359 73.2305 19.513 73.2092 19.6454C72.9325 21.3246 73.2965 22.7739 74.6014 23.9303C74.778 24.0865 74.8972 24.451 74.8483 24.6766C74.8185 24.8154 74.4289 24.9239 74.1884 24.9586C73.586 25.0454 72.9708 25.0476 72.3726 25.1561C72.0853 25.2081 71.7787 25.3774 71.5638 25.5835C71.0039 26.1172 70.5058 26.7225 69.9417 27.254C69.797 27.3907 69.4628 27.4666 69.2925 27.3929C69.1137 27.3148 68.9455 27.0306 68.9178 26.8158C68.8582 26.3905 68.8987 25.9523 68.8987 25.3448Z" fill="#FF6DCA"/>
</g>
<defs>
<clipPath id="clip0_110_1353">
<rect width="112" height="34" fill="white"/>
</clipPath>
</defs>
</svg>
