<svg width="236" height="522" viewBox="0 0 236 522" fill="none" xmlns="http://www.w3.org/2000/svg">
<path opacity="0.22" d="M43.8945 357.82C55.4995 324.217 32.6503 298.97 10.7632 272.641C4.87053 265.608 3.4875 254.848 0 245.831C8.17759 243.667 16.3552 239.639 24.4727 239.639C61.5725 239.639 95.4252 233.868 117.613 199.183C123.145 190.527 131.322 183.013 139.74 177.062C143.95 174.056 152.187 173.876 157.298 175.86C161.327 177.423 164.033 183.915 165.897 188.784C167.16 191.97 166.258 196.238 165.656 199.905C157.84 246.432 168.122 286.587 204.981 318.627C209.972 322.955 213.339 333.054 211.956 339.306C211.114 343.153 200.11 346.159 193.316 347.12C176.299 349.525 158.922 349.585 142.025 352.591C133.908 354.033 125.249 358.722 119.176 364.433C103.362 379.22 89.2921 395.992 73.3579 410.719C69.2691 414.507 59.8286 416.61 55.0183 414.567C49.9674 412.403 45.2173 404.528 44.4357 398.577C42.752 386.795 43.8945 374.652 43.8945 357.82Z" fill="#E58103"/>
<path opacity="0.22" d="M189.723 177.48C192.235 170.193 187.289 164.719 182.55 159.01C181.274 157.485 180.975 155.152 180.22 153.196C181.99 152.727 183.761 151.854 185.518 151.854C193.55 151.854 200.879 150.603 205.683 143.082C206.881 141.205 208.651 139.576 210.474 138.285C211.385 137.633 213.168 137.594 214.275 138.024C215.147 138.363 215.733 139.771 216.136 140.827C216.41 141.518 216.215 142.443 216.084 143.238C214.392 153.327 216.618 162.034 224.598 168.981C225.679 169.92 226.408 172.109 226.108 173.465C225.926 174.299 223.544 174.951 222.073 175.159C218.389 175.681 214.626 175.694 210.968 176.346C209.211 176.658 207.336 177.675 206.021 178.913C202.598 182.12 199.552 185.756 196.102 188.95C195.217 189.771 193.173 190.227 192.131 189.784C191.038 189.315 190.009 187.607 189.84 186.317C189.476 183.762 189.723 181.129 189.723 177.48Z" fill="#E58103"/>
<path opacity="0.22" d="M179.95 72.2109C184.405 59.3008 175.633 49.6009 167.231 39.4853C164.969 36.7832 164.438 32.6492 163.099 29.1849C166.238 28.3535 169.378 26.8061 172.494 26.8061C186.737 26.8061 199.733 24.589 208.251 11.2632C210.374 7.93749 213.514 5.05061 216.745 2.7642C218.361 1.60945 221.524 1.54018 223.486 2.30231C225.032 2.90278 226.071 5.39703 226.787 7.26773C227.272 8.49176 226.925 10.1315 226.695 11.5403C223.694 29.4159 227.641 44.8433 241.791 57.153C243.707 58.8158 245 62.6958 244.469 65.0977C244.146 66.5757 239.921 67.7305 237.313 68.1C230.78 69.0238 224.109 69.0469 217.623 70.2017C214.506 70.7559 211.182 72.5574 208.851 74.7514C202.78 80.4328 197.378 86.8763 191.261 92.5346C189.691 93.9895 186.067 94.7979 184.22 94.0126C182.281 93.1812 180.458 90.1558 180.158 87.8694C179.511 83.3427 179.95 78.6775 179.95 72.2109Z" fill="#E58103"/>
</svg>
