<svg width="124" height="334" viewBox="0 0 124 334" fill="none" xmlns="http://www.w3.org/2000/svg">
<g clip-path="url(#clip0_110_1334)">
<path opacity="0.22" d="M-78.1055 357.82C-66.5005 324.217 -89.3497 298.97 -111.237 272.641C-117.129 265.608 -118.512 254.848 -122 245.831C-113.822 243.667 -105.645 239.639 -97.5273 239.639C-60.4275 239.639 -26.5748 233.868 -4.38705 199.183C1.14485 190.527 9.32239 183.013 17.7405 177.062C21.9496 174.056 30.1873 173.876 35.2983 175.86C39.327 177.423 42.0328 183.915 43.8968 188.784C45.1595 191.97 44.2577 196.238 43.6564 199.905C35.8396 246.432 46.1216 286.587 82.9809 318.627C87.9716 322.955 91.3389 333.054 89.9559 339.306C89.1141 343.153 78.1104 346.159 71.3158 347.12C54.2991 349.525 36.9218 349.585 20.0254 352.591C11.908 354.033 3.24944 358.722 -2.82363 364.433C-18.6376 379.22 -32.7079 395.992 -48.6421 410.719C-52.7309 414.507 -62.1714 416.61 -66.9817 414.567C-72.0326 412.403 -76.7827 404.528 -77.5643 398.577C-79.248 386.795 -78.1055 374.652 -78.1055 357.82Z" fill="#E58103"/>
<path opacity="0.22" d="M67.7229 177.48C70.2354 170.193 65.2885 164.719 60.55 159.01C59.2742 157.485 58.9748 155.152 58.2197 153.196C59.9902 152.727 61.7606 151.854 63.5181 151.854C71.5502 151.854 78.8793 150.603 83.6829 143.082C84.8806 141.205 86.651 139.575 88.4735 138.285C89.3848 137.633 91.1683 137.594 92.2748 138.024C93.147 138.363 93.7328 139.771 94.1364 140.827C94.4097 141.518 94.2145 142.443 94.0843 143.238C92.392 153.327 94.618 162.034 102.598 168.981C103.679 169.92 104.408 172.109 104.108 173.465C103.926 174.299 101.544 174.951 100.073 175.159C96.3885 175.681 92.6263 175.694 88.9682 176.346C87.2108 176.658 85.3362 177.675 84.0214 178.913C80.5977 182.12 77.5515 185.756 74.1017 188.95C73.2165 189.771 71.1726 190.227 70.1312 189.784C69.0377 189.315 68.0093 187.607 67.84 186.317C67.4755 183.762 67.7229 181.129 67.7229 177.48Z" fill="#E58103"/>
<path opacity="0.22" d="M57.95 72.2109C62.4052 59.3008 53.6333 49.6009 45.2309 39.4853C42.9687 36.7832 42.4377 32.6492 41.0989 29.1849C44.2383 28.3535 47.3777 26.8061 50.494 26.8061C64.7366 26.8061 77.7327 24.589 86.2506 11.2632C88.3743 7.93749 91.5137 5.05061 94.7454 2.7642C96.3612 1.60945 99.5237 1.54017 101.486 2.30231C103.032 2.90278 104.071 5.39703 104.787 7.26772C105.272 8.49176 104.925 10.1315 104.695 11.5403C101.694 29.4159 105.641 44.8433 119.791 57.153C121.707 58.8158 123 62.6958 122.469 65.0977C122.146 66.5757 117.921 67.7305 115.313 68.1C108.78 69.0238 102.109 69.0469 95.6226 70.2017C92.5063 70.7559 89.1822 72.5574 86.8508 74.7514C80.7798 80.4328 75.3782 86.8763 69.261 92.5346C67.6913 93.9895 64.0671 94.7979 62.2205 94.0126C60.2814 93.1812 58.4579 90.1558 58.1578 87.8693C57.5114 83.3427 57.95 78.6775 57.95 72.2109Z" fill="#E58103"/>
</g>
<defs>
<clipPath id="clip0_110_1334">
<rect width="246" height="334" fill="white" transform="translate(-122)"/>
</clipPath>
</defs>
</svg>
