<svg width="230" height="357" viewBox="0 0 230 357" fill="none" xmlns="http://www.w3.org/2000/svg">
<g opacity="0.48" clip-path="url(#clip0_234_1677)">
<rect width="303" height="357" transform="translate(303 357) rotate(180)" fill="#FCFCFC"/>
<path opacity="0.22" d="M248.935 -83.3118C234.641 -41.9621 262.784 -10.8943 289.743 21.5049C297.001 30.1595 298.704 43.4003 303 54.4959C292.928 57.1589 282.855 62.1149 272.857 62.1149C227.161 62.1149 185.464 69.2162 158.135 111.897C151.322 122.549 141.249 131.795 130.881 139.119C125.696 142.817 115.55 143.039 109.254 140.598C104.292 138.675 100.96 130.686 98.6637 124.694C97.1084 120.774 98.2192 115.522 98.9598 111.01C108.588 53.7562 95.9234 4.34369 50.5236 -35.0828C44.3764 -40.4087 40.229 -52.8357 41.9324 -60.5287C42.9693 -65.2628 56.5226 -68.9614 64.8916 -70.145C85.851 -73.1038 107.255 -73.1777 128.066 -76.8763C138.065 -78.6516 148.729 -84.4213 156.21 -91.4485C175.688 -109.645 193.018 -130.283 212.645 -148.406C217.681 -153.066 229.309 -155.655 235.234 -153.14C241.455 -150.477 247.305 -140.787 248.268 -133.464C250.342 -118.966 248.935 -104.024 248.935 -83.3118Z" fill="#ADADAD"/>
<path opacity="0.22" d="M69.3169 138.604C66.2222 147.57 72.3153 154.307 78.1518 161.332C79.7232 163.209 80.092 166.08 81.022 168.486C78.8413 169.063 76.6606 170.138 74.496 170.138C64.6028 170.138 55.5755 171.677 49.6588 180.932C48.1836 183.242 46.003 185.247 43.7582 186.835C42.6358 187.637 40.439 187.685 39.0761 187.155C38.0018 186.738 37.2803 185.006 36.7832 183.707C36.4465 182.857 36.687 181.718 36.8473 180.74C38.9318 168.325 36.1899 157.611 26.3609 149.062C25.03 147.907 24.1321 145.213 24.5009 143.544C24.7254 142.518 27.6597 141.716 29.4715 141.459C34.0093 140.818 38.6432 140.802 43.1488 140C45.3135 139.615 47.6224 138.364 49.2419 136.84C53.4589 132.894 57.2109 128.419 61.46 124.49C62.5504 123.479 65.0678 122.918 66.3505 123.463C67.6974 124.041 68.9641 126.142 69.1726 127.73C69.6215 130.873 69.3169 134.113 69.3169 138.604Z" fill="#ADADAD"/>
<path opacity="0.22" d="M81.3542 268.141C75.8667 284.028 86.6711 295.964 97.0204 308.412C99.8068 311.737 100.461 316.824 102.11 321.087C98.2431 322.11 94.3762 324.014 90.5379 324.014C72.9951 324.014 56.9877 326.742 46.4962 343.14C43.8804 347.232 40.0136 350.785 36.0331 353.598C34.0428 355.019 30.1475 355.105 27.7308 354.167C25.8258 353.428 24.5464 350.359 23.665 348.057C23.0679 346.55 23.4943 344.533 23.7786 342.799C27.4748 320.802 22.613 301.818 5.18392 286.671C2.82404 284.625 1.23181 279.85 1.88576 276.895C2.28381 275.076 7.48695 273.655 10.6998 273.2C18.7462 272.063 26.9631 272.035 34.9526 270.614C38.791 269.932 42.8852 267.715 45.7569 265.015C53.2346 258.024 59.8878 250.095 67.4223 243.132C69.3557 241.342 73.8197 240.347 76.0943 241.314C78.4826 242.337 80.7287 246.06 81.0983 248.873C81.8944 254.443 81.3542 260.184 81.3542 268.141Z" fill="#ADADAD"/>
</g>
<defs>
<clipPath id="clip0_234_1677">
<rect width="303" height="357" fill="white" transform="translate(303 357) rotate(180)"/>
</clipPath>
</defs>
</svg>
