<svg width="216" height="364" viewBox="0 0 216 364" fill="none" xmlns="http://www.w3.org/2000/svg">
<g opacity="0.48" clip-path="url(#clip0_170_559)">
<rect width="303" height="411" transform="translate(-87)" fill="#FCFCFC"/>
<path opacity="0.22" d="M-32.9348 440.312C-18.6409 398.962 -46.7844 367.894 -73.7429 335.495C-81.0009 326.841 -82.7044 313.6 -87 302.504C-76.9276 299.841 -66.8552 294.885 -56.8568 294.885C-11.1607 294.885 30.5359 287.784 57.8647 245.103C64.6784 234.451 74.7507 225.205 85.1194 217.881C90.3037 214.183 100.45 213.961 106.746 216.402C111.708 218.325 115.04 226.314 117.336 232.306C118.892 236.226 117.781 241.478 117.04 245.99C107.412 303.244 120.077 352.656 165.476 392.083C171.624 397.409 175.771 409.836 174.068 417.529C173.031 422.263 159.477 425.961 151.108 427.145C130.149 430.104 108.745 430.178 87.9338 433.876C77.9354 435.652 67.2706 441.421 59.7904 448.449C40.3122 466.645 22.9818 487.283 3.3554 505.406C-1.6808 510.066 -13.3086 512.655 -19.2336 510.14C-25.4548 507.477 -31.3055 497.787 -32.2683 490.464C-34.342 475.966 -32.9348 461.024 -32.9348 440.312Z" fill="#ADADAD"/>
<path opacity="0.22" d="M146.683 218.396C149.778 209.43 143.685 202.693 137.848 195.668C136.277 193.791 135.908 190.92 134.978 188.514C137.159 187.937 139.339 186.862 141.504 186.862C151.397 186.862 160.425 185.323 166.341 176.068C167.816 173.758 169.997 171.753 172.242 170.165C173.364 169.363 175.561 169.315 176.924 169.845C177.998 170.262 178.72 171.994 179.217 173.293C179.554 174.143 179.313 175.282 179.153 176.26C177.068 188.675 179.81 199.389 189.639 207.938C190.97 209.093 191.868 211.787 191.499 213.456C191.275 214.482 188.34 215.284 186.528 215.541C181.991 216.182 177.357 216.198 172.851 217C170.687 217.385 168.378 218.636 166.758 220.16C162.541 224.106 158.789 228.581 154.54 232.51C153.45 233.521 150.932 234.082 149.649 233.537C148.303 232.959 147.036 230.858 146.827 229.27C146.378 226.127 146.683 222.887 146.683 218.396Z" fill="#ADADAD"/>
<path opacity="0.22" d="M134.646 88.8586C140.133 72.9722 129.329 61.036 118.98 48.5884C116.193 45.2633 115.539 40.1763 113.89 35.9134C117.757 34.8903 121.624 32.9862 125.462 32.9862C143.005 32.9862 159.012 30.2579 169.504 13.86C172.12 9.76757 175.986 6.21516 179.967 3.40165C181.957 1.98068 185.852 1.89543 188.269 2.83327C190.174 3.57217 191.454 6.64144 192.335 8.94341C192.932 10.4496 192.506 12.4674 192.221 14.201C188.525 36.1976 193.387 55.1817 210.816 70.3292C213.176 72.3754 214.768 77.1498 214.114 80.1054C213.716 81.9242 208.513 83.3452 205.3 83.7999C197.254 84.9367 189.037 84.9651 181.047 86.3861C177.209 87.0681 173.115 89.2848 170.243 91.9847C162.765 98.9758 156.112 106.905 148.578 113.868C146.644 115.658 142.18 116.653 139.906 115.686C137.517 114.663 135.271 110.94 134.902 108.127C134.106 102.557 134.646 96.816 134.646 88.8586Z" fill="#ADADAD"/>
</g>
<defs>
<clipPath id="clip0_170_559">
<rect width="303" height="411" fill="white" transform="translate(-87)"/>
</clipPath>
</defs>
</svg>
